<?xml version="1.0" standalone="no"?>
<!DOCTYPE svg PUBLIC "-//W3C//DTD SVG 20010904//EN"
 "http://www.w3.org/TR/2001/REC-SVG-20010904/DTD/svg10.dtd">
<svg version="1.0" xmlns="http://www.w3.org/2000/svg"
 width="240.000000pt" height="240.000000pt" viewBox="0 0 240.000000 240.000000"
 preserveAspectRatio="xMidYMid meet">
<metadata>
Created by potrace 1.11, written by Peter Selinger 2001-2013
</metadata>
<g transform="translate(0.000000,240.000000) scale(0.100000,-0.100000)"
fill="#000000" stroke="none">
<path d="M265 1965 c-2 -11 -7 -51 -11 -90 -3 -38 -8 -81 -9 -95 -1 -14 -6
-56 -9 -95 -4 -38 -9 -83 -11 -100 -2 -16 -7 -57 -10 -90 -6 -59 -10 -101 -20
-187 -2 -24 -7 -70 -10 -103 -5 -58 -9 -90 -19 -185 -3 -25 -8 -72 -11 -105
-3 -33 -8 -76 -10 -95 -5 -35 -8 -69 -20 -185 -3 -33 -8 -76 -10 -95 -2 -19
-7 -61 -10 -93 l-5 -58 282 2 c156 0 310 5 342 10 88 14 195 68 253 127 92 94
137 223 136 392 0 176 -52 266 -178 309 -33 11 -53 21 -45 21 29 1 116 47 148
80 124 123 142 430 32 539 -39 39 -129 87 -179 96 -17 3 -46 8 -63 11 -18 4
-151 7 -296 8 -257 2 -263 1 -267 -19z m501 -238 c44 -23 65 -61 69 -123 5
-85 -24 -174 -72 -218 -29 -27 -70 -38 -157 -41 l-58 -2 7 76 c4 42 8 87 10
101 1 14 6 59 10 100 12 114 13 125 14 129 3 10 150 -8 177 -22z m-61 -636
c59 -26 78 -67 78 -171 0 -131 -42 -228 -116 -266 -17 -9 -64 -17 -113 -20
l-83 -4 4 38 c2 20 7 66 11 102 3 36 8 76 9 90 2 14 6 52 9 85 9 89 18 159 22
166 8 13 135 -1 179 -20z"/>
<path d="M1422 1976 c-3 -6 -7 -17 -7 -26 -1 -8 -5 -46 -9 -85 -4 -38 -9 -90
-12 -115 -10 -103 -15 -147 -19 -180 -3 -19 -7 -64 -10 -100 -3 -36 -8 -81
-10 -100 -6 -51 -13 -115 -20 -195 -3 -38 -8 -81 -11 -95 -2 -14 -6 -47 -9
-75 -10 -107 -16 -171 -20 -205 -7 -56 -16 -142 -20 -180 -2 -19 -7 -66 -10
-105 -4 -38 -9 -83 -10 -99 l-3 -28 322 4 321 4 74 30 c98 39 177 104 223 184
95 163 102 430 13 541 -27 35 -93 76 -133 84 -32 7 -36 17 -9 21 66 10 157 89
189 164 50 117 57 286 15 381 -39 89 -148 157 -277 174 -90 12 -560 13 -568 1z
m483 -242 c34 -13 74 -61 81 -99 15 -82 -21 -208 -73 -252 -26 -23 -88 -37
-168 -38 l-40 0 1 40 c0 22 4 67 7 100 4 33 9 89 13 125 3 36 8 76 9 90 2 14
4 30 4 37 1 6 11 13 24 15 26 4 114 -7 142 -18z m-50 -640 c56 -27 79 -77 80
-174 0 -135 -49 -242 -124 -271 -29 -12 -156 -23 -174 -16 -11 4 -12 19 -6 69
4 34 10 97 14 138 4 41 8 82 10 90 1 8 6 51 10 95 4 44 9 82 10 86 8 13 143 0
180 -17z"/>
</g>
</svg>
