<svg xmlns="http://www.w3.org/2000/svg" data-name="Layer 1" viewBox="0 0 246.82 35.91"><path d="M30.52 9.25c0 3.43-1.67 5.85-5 7.29a10.26 10.26 0 014.78 3.3A8.4 8.4 0 0131.87 25q0 10.32-15.47 10.32H0v-6h4.36V6H0V0h16.41q7.14 0 10.63 2.29a7.77 7.77 0 013.48 6.96zm-9.17.47a3 3 0 00-1.48-2.89A8.64 8.64 0 0015.68 6h-2.15v8h2.83a6.09 6.09 0 003.75-1 3.89 3.89 0 001.24-3.28zm1.11 15a4.37 4.37 0 00-1.49-3.71q-1.49-1.12-5.12-1.12h-2.32v9.4h3.61a6.18 6.18 0 003.87-1.11 4.05 4.05 0 001.45-3.43zm37.19-4.14v9.11h4v5.68H51.82v-1.93a11.73 11.73 0 01-6.7 2.3 9.59 9.59 0 01-6.49-2.09 7 7 0 01-2.44-5.62 7.41 7.41 0 012.73-6 11 11 0 017.25-2.26 10.5 10.5 0 012.81.34 15.06 15.06 0 012.84 1.16v-2a4 4 0 00-1.17-3 4.89 4.89 0 00-3.51-1.13 6.23 6.23 0 00-4.53 2l-6.33-1.15c1.93-3.87 5.89-5.81 11.91-5.81q6.19 0 8.82 2.54t2.64 7.86zM46.9 30.79q2.1 0 4.94-2.53v-2.2a8.63 8.63 0 00-4.64-1.64 3.77 3.77 0 00-2.58.79 2.92 2.92 0 00-.89 2.28q-.02 3.3 3.17 3.3zm38.44-18.04v-2.07h5.37v10h-5.56q-2-4.08-6-4.08a5.22 5.22 0 00-4.07 1.8 6.54 6.54 0 00-1.6 4.5 7.56 7.56 0 001.53 4.89 5 5 0 004.09 1.91 6.55 6.55 0 003.52-1 7.88 7.88 0 002.72-2.91l6.09 2.7a14.62 14.62 0 01-4.85 5.62 14 14 0 01-7.64 1.83q-6.24 0-9.88-3.41t-3.64-9.46a12.75 12.75 0 011.67-6.49 12.42 12.42 0 0110.8-6.19 13.15 13.15 0 017.45 2.36zm23.08 17.15v5.42H93.64v-5.68h3.93v-24h-3.93V0h11.81v29.9zm.24-19.22h14.88v5h-2.44l-7.26 6.16 6.58 7.8h3.4v5.68h-7.83l-10.5-13 8.35-6.87h-5.18z" fill="#33d399"/><path d="M153.9 9.25c0 3.43-1.66 5.85-5 7.29a10.21 10.21 0 014.78 3.3 8.33 8.33 0 011.57 5.16q0 10.32-15.47 10.32h-16.4v-6h4.36V6h-4.36V0h16.4q7.15 0 10.63 2.29a7.77 7.77 0 013.49 6.96zm-9.16.47a3 3 0 00-1.49-2.89 8.6 8.6 0 00-4.18-.83h-2.17v8h2.84a6.09 6.09 0 003.75-1 3.89 3.89 0 001.24-3.28zm1.1 15a4.37 4.37 0 00-1.49-3.71q-1.49-1.12-5.12-1.12h-2.33v9.4h3.61a6.19 6.19 0 003.88-1.11 4.08 4.08 0 001.44-3.43zm39.83-1.73a12.81 12.81 0 01-1.77 6.59 12.45 12.45 0 01-4.69 4.62 13 13 0 01-6.49 1.66 13.4 13.4 0 01-6.7-1.66 11.84 11.84 0 01-4.61-4.62 13.36 13.36 0 01-1.65-6.63 12.91 12.91 0 011.7-6.59 12.21 12.21 0 014.67-4.6 13.84 13.84 0 0113.22 0 12 12 0 014.62 4.6 13.09 13.09 0 011.7 6.63zm-13 6.79a4.19 4.19 0 003.6-1.79 8.63 8.63 0 001.3-5.14 8.12 8.12 0 00-1.3-4.91 4.26 4.26 0 00-3.64-1.77 4.1 4.1 0 00-3.59 1.74 9.28 9.28 0 00-1.14 5.27 7.9 7.9 0 001.33 4.79 4.13 4.13 0 003.48 1.81zm42.14-10.2v10h3.7v5.68H206.9V20.25a4.54 4.54 0 00-.53-2.52 2 2 0 00-1.76-.79 7.8 7.8 0 00-4.53 1.62v11.08h3.85v5.68h-15.4v-5.68h3.75V16.45h-3.75v-5.77h11.55V13a11.93 11.93 0 017.22-2.65 6.77 6.77 0 015.58 2.34c1.29 1.55 1.93 3.89 1.93 6.89zm32.01 5.07h-18.37a7.09 7.09 0 002 4.49 5.91 5.91 0 004.33 1.65q2.92 0 5.72-2.9l6.09 2a13.1 13.1 0 01-5 4.54 15.38 15.38 0 01-7.06 1.51 16.19 16.19 0 01-7.2-1.53 11.47 11.47 0 01-4.85-4.35 12.41 12.41 0 01-1.73-6.61 13.12 13.12 0 011.8-6.8 12.84 12.84 0 014.85-4.77 13.28 13.28 0 016.64-1.72 12.63 12.63 0 016.78 1.79 11.76 11.76 0 014.44 5.09 18.13 18.13 0 011.56 7.61zm-13.19-9.3a4.67 4.67 0 00-3.39 1.22 6 6 0 00-1.6 3.72h10.26a5.94 5.94 0 00-1.79-3.57 4.9 4.9 0 00-3.48-1.37z"/></svg>