<?xml version="1.0" encoding="UTF-8"?> <svg xmlns="http://www.w3.org/2000/svg" id="Layer_1" data-name="Layer 1" viewBox="0 0 246.82 35.91"><title>backbone</title><path d="M711.62,386.67c0,3.43-1.67,5.85-5,7.29a10.26,10.26,0,0,1,4.78,3.3,8.4,8.4,0,0,1,1.57,5.16q0,10.32-15.47,10.32H681.1v-6h4.36V383.42H681.1v-6h16.41q7.14,0,10.63,2.29A7.77,7.77,0,0,1,711.62,386.67Zm-9.17.47a3,3,0,0,0-1.48-2.89,8.64,8.64,0,0,0-4.19-.83h-2.15v8h2.83a6.09,6.09,0,0,0,3.75-1A3.89,3.89,0,0,0,702.45,387.14Zm1.11,15a4.37,4.37,0,0,0-1.49-3.71q-1.49-1.12-5.12-1.12h-2.32v9.4h3.61a6.18,6.18,0,0,0,3.87-1.11A4.05,4.05,0,0,0,703.56,402.17Z" transform="translate(-681.1 -377.42)" style="fill:#33d399"></path><path d="M740.75,398v9.11h4v5.68H732.92v-1.93a11.73,11.73,0,0,1-6.7,2.3,9.59,9.59,0,0,1-6.49-2.09,7,7,0,0,1-2.44-5.62,7.41,7.41,0,0,1,2.73-6,11,11,0,0,1,7.25-2.26,10.5,10.5,0,0,1,2.81.34,15.06,15.06,0,0,1,2.84,1.16v-2a4,4,0,0,0-1.17-3,4.89,4.89,0,0,0-3.51-1.13,6.23,6.23,0,0,0-4.53,2l-6.33-1.15c1.93-3.87,5.89-5.81,11.91-5.81q6.19,0,8.82,2.54T740.75,398ZM728,408.21q2.1,0,4.94-2.53v-2.2a8.63,8.63,0,0,0-4.64-1.64,3.77,3.77,0,0,0-2.58.79,2.92,2.92,0,0,0-.89,2.28Q724.81,408.21,728,408.21Z" transform="translate(-681.1 -377.42)" style="fill:#33d399"></path><path d="M766.44,390.17V388.1h5.37v10h-5.56q-2-4.08-6-4.08a5.22,5.22,0,0,0-4.07,1.8,6.54,6.54,0,0,0-1.6,4.5,7.56,7.56,0,0,0,1.53,4.89,5,5,0,0,0,4.09,1.91,6.55,6.55,0,0,0,3.52-1,7.88,7.88,0,0,0,2.72-2.91l6.09,2.7a14.62,14.62,0,0,1-4.85,5.62,14,14,0,0,1-7.64,1.83q-6.24,0-9.88-3.41t-3.64-9.46a12.75,12.75,0,0,1,1.67-6.49,12.42,12.42,0,0,1,10.8-6.19A13.15,13.15,0,0,1,766.44,390.17Z" transform="translate(-681.1 -377.42)" style="fill:#33d399"></path><path d="M789.52,407.32v5.42H774.74v-5.68h3.93v-24h-3.93v-5.64h11.81v29.9Zm.24-19.22h14.88v5H802.2l-7.26,6.16,6.58,7.8h3.4v5.68h-7.83l-10.5-13,8.35-6.87h-5.18Z" transform="translate(-681.1 -377.42)" style="fill:#33d399"></path><path d="M835,386.67c0,3.43-1.66,5.85-5,7.29a10.21,10.21,0,0,1,4.78,3.3,8.33,8.33,0,0,1,1.57,5.16q0,10.32-15.47,10.32h-16.4v-6h4.36V383.42h-4.36v-6h16.4q7.15,0,10.63,2.29A7.77,7.77,0,0,1,835,386.67Zm-9.16.47a3,3,0,0,0-1.49-2.89,8.6,8.6,0,0,0-4.18-.83H818v8h2.84a6.09,6.09,0,0,0,3.75-1A3.89,3.89,0,0,0,825.83,387.14Zm1.1,15a4.37,4.37,0,0,0-1.49-3.71q-1.49-1.12-5.12-1.12H818v9.4h3.61a6.19,6.19,0,0,0,3.88-1.11A4.08,4.08,0,0,0,826.93,402.17Z" transform="translate(-681.1 -377.42)"></path><path d="M866.77,400.41A12.81,12.81,0,0,1,865,407a12.45,12.45,0,0,1-4.69,4.62,13,13,0,0,1-6.49,1.66,13.4,13.4,0,0,1-6.7-1.66,11.84,11.84,0,0,1-4.61-4.62,13.36,13.36,0,0,1-1.65-6.63,12.91,12.91,0,0,1,1.7-6.59,12.21,12.21,0,0,1,4.67-4.6,13.84,13.84,0,0,1,13.22,0,12,12,0,0,1,4.62,4.6A13.09,13.09,0,0,1,866.77,400.41Zm-13,6.79a4.19,4.19,0,0,0,3.6-1.79,8.63,8.63,0,0,0,1.3-5.14,8.12,8.12,0,0,0-1.3-4.91,4.26,4.26,0,0,0-3.64-1.77,4.1,4.1,0,0,0-3.59,1.74A9.28,9.28,0,0,0,849,400.6a7.9,7.9,0,0,0,1.33,4.79A4.13,4.13,0,0,0,853.81,407.2Z" transform="translate(-681.1 -377.42)"></path><path d="M895.91,397v10h3.7v5.68H888V397.67a4.54,4.54,0,0,0-.53-2.52,2,2,0,0,0-1.76-.79,7.8,7.8,0,0,0-4.53,1.62v11.08h3.85v5.68h-15.4v-5.68h3.75V393.87h-3.75V388.1h11.55v2.32a11.93,11.93,0,0,1,7.22-2.65,6.77,6.77,0,0,1,5.58,2.34C895.27,391.66,895.91,394,895.91,397Z" transform="translate(-681.1 -377.42)"></path><path d="M927.92,402.07H909.55a7.09,7.09,0,0,0,2,4.49,5.91,5.91,0,0,0,4.33,1.65q2.92,0,5.72-2.9l6.09,2a13.1,13.1,0,0,1-5,4.54,15.38,15.38,0,0,1-7.06,1.51,16.19,16.19,0,0,1-7.2-1.53,11.47,11.47,0,0,1-4.85-4.35,12.41,12.41,0,0,1-1.73-6.61,13.12,13.12,0,0,1,1.8-6.8,12.84,12.84,0,0,1,4.85-4.77,13.28,13.28,0,0,1,6.64-1.72,12.63,12.63,0,0,1,6.78,1.79,11.76,11.76,0,0,1,4.44,5.09A18.13,18.13,0,0,1,927.92,402.07Zm-13.19-9.3a4.67,4.67,0,0,0-3.39,1.22,6,6,0,0,0-1.6,3.72H920a5.94,5.94,0,0,0-1.79-3.57A4.9,4.9,0,0,0,914.73,392.77Z" transform="translate(-681.1 -377.42)"></path></svg> 